<svg width="190" height="99" viewBox="0 0 190 99" fill="none" xmlns="http://www.w3.org/2000/svg">
<mask id="mask0_1038_3416" style="mask-type:alpha" maskUnits="userSpaceOnUse" x="0" y="0" width="190" height="99">
<path d="M0 10C0 4.47715 4.47715 0 10 0H179.199C184.722 0 189.199 4.47715 189.199 10V89C189.199 94.5229 184.722 99 179.199 99H10C4.47715 99 0 94.5229 0 89V10Z" fill="#101828"/>
</mask>
<g mask="url(#mask0_1038_3416)">
<path d="M-111.544 271.069C76.6062 271.069 229.132 173.341 229.132 52.7882C229.132 -67.7649 76.6062 -165.492 -111.544 -165.492C-299.695 -165.492 -452.221 -67.7649 -452.221 52.7882C-452.221 173.341 -299.695 271.069 -111.544 271.069Z" fill="url(#paint0_linear_1038_3416)"/>
<g opacity="0.5">
<path d="M-111.545 198.308C13.889 198.308 115.573 133.157 115.573 52.788C115.573 -27.5807 13.889 -92.7324 -111.545 -92.7324C-236.978 -92.7324 -338.663 -27.5807 -338.663 52.788C-338.663 133.157 -236.978 198.308 -111.545 198.308Z" fill="url(#paint1_linear_1038_3416)"/>
<path d="M-111.545 183.756C1.34576 183.756 92.8615 125.12 92.8615 52.788C92.8615 -19.5439 1.34576 -78.1804 -111.545 -78.1804C-224.435 -78.1804 -315.951 -19.5439 -315.951 52.788C-315.951 125.12 -224.435 183.756 -111.545 183.756Z" fill="url(#paint2_linear_1038_3416)"/>
<path d="M-111.545 176.48C-4.92584 176.48 81.5057 121.101 81.5057 52.7881C81.5057 -15.5253 -4.92584 -70.9043 -111.545 -70.9043C-218.163 -70.9043 -304.595 -15.5253 -304.595 52.7881C-304.595 121.101 -218.163 176.48 -111.545 176.48Z" fill="url(#paint3_linear_1038_3416)"/>
<path d="M-111.544 172.915C-7.9989 172.915 75.9414 119.132 75.9414 52.788C75.9414 -13.5564 -7.9989 -67.3391 -111.544 -67.3391C-215.09 -67.3391 -299.03 -13.5564 -299.03 52.788C-299.03 119.132 -215.09 172.915 -111.544 172.915Z" fill="url(#paint4_linear_1038_3416)"/>
<path d="M-111.545 158.29C-20.6052 158.29 53.1158 111.055 53.1158 52.7879C53.1158 -5.47937 -20.6052 -52.7144 -111.545 -52.7144C-202.484 -52.7144 -276.205 -5.47937 -276.205 52.7879C-276.205 111.055 -202.484 158.29 -111.545 158.29Z" fill="url(#paint5_linear_1038_3416)"/>
<path d="M-111.544 143.738C-33.1484 143.738 30.4042 103.018 30.4042 52.7879C30.4042 2.55746 -33.1484 -38.1624 -111.544 -38.1624C-189.941 -38.1624 -253.493 2.55746 -253.493 52.7879C-253.493 103.018 -189.941 143.738 -111.544 143.738Z" fill="url(#paint6_linear_1038_3416)"/>
<path d="M-111.545 138.281C-37.8525 138.281 21.8869 100.005 21.8869 52.7879C21.8869 5.5713 -37.8525 -32.7053 -111.545 -32.7053C-185.237 -32.7053 -244.977 5.5713 -244.977 52.7879C-244.977 100.005 -185.237 138.281 -111.545 138.281Z" fill="url(#paint7_linear_1038_3416)"/>
</g>
<g opacity="0.2">
<path d="M2.77151 82.2413C2.77287 82.2432 2.77273 82.2459 2.77114 82.2482C-0.326038 86.8958 -4.10865 91.3509 -8.51019 95.5263C-12.9204 99.7011 -17.9471 103.591 -23.5021 107.13C-29.0571 110.67 -35.1375 113.853 -41.6157 116.635C-48.1014 119.416 -54.9822 121.789 -62.1433 123.718C-69.3043 125.647 -76.7382 127.133 -84.3056 128.154C-91.8805 129.174 -99.5863 129.723 -107.289 129.792C-114.992 129.86 -122.695 129.451 -130.241 128.575C-137.803 127.695 -145.202 126.349 -152.326 124.579C-145.09 126.152 -137.637 127.283 -130.094 127.942C-122.553 128.606 -114.929 128.796 -107.368 128.516C-99.7996 128.237 -92.294 127.489 -84.9907 126.293C-77.6799 125.098 -70.5611 123.452 -63.7742 121.392C-56.9798 119.334 -50.5071 116.86 -44.4819 114.027C-38.4464 111.19 -32.8556 107.99 -27.8073 104.479C-22.759 100.968 -18.2512 97.1571 -14.3619 93.1101C-10.4726 89.0632 -7.21216 84.7829 -4.60901 80.3492C-3.83623 79.0335 -1.552 78.4226 0.501493 78.9177C2.55499 79.4129 3.60632 80.8234 2.83081 82.1439C2.81264 82.1759 2.79694 82.2035 2.77247 82.2336C2.77037 82.2362 2.76998 82.2392 2.77151 82.2413Z" fill="url(#paint8_linear_1038_3416)"/>
<path d="M18.1132 8.44126C18.1171 8.44192 18.1204 8.44367 18.1223 8.44604C22.3759 13.8231 25.8295 19.454 28.4096 25.2328C30.9819 31.016 32.6756 36.9418 33.4639 42.9079C34.2522 48.8739 34.1304 54.875 33.1307 60.801C32.1228 66.73 30.2323 72.5787 27.4925 78.2504C24.7527 83.9221 21.1719 89.4138 16.8259 94.6274C12.4716 99.844 7.34742 104.777 1.53846 109.339C-4.2705 113.902 -10.7595 118.098 -17.7961 121.844C-24.8491 125.597 -32.4416 128.897 -40.428 131.711C-32.636 128.681 -25.3083 125.185 -18.5845 121.273C-11.856 117.367 -5.73953 113.049 -0.341599 108.407C5.06455 103.763 9.75219 98.7945 13.6455 93.6011C17.5471 88.4046 20.6579 82.9744 22.9245 77.4216C25.1994 71.8658 26.6335 66.179 27.2126 60.4788C27.7951 54.7703 27.5177 49.0431 26.3811 43.3953C25.2445 37.7475 23.2664 32.1864 20.4769 26.8063C17.6874 21.4262 14.0829 16.2353 9.75582 11.3117C8.47191 9.85038 9.35205 8.04456 11.6327 7.22193C13.9134 6.3993 16.7311 6.86526 18.0198 8.33181C18.0517 8.36729 18.0793 8.39788 18.1036 8.43572C18.1054 8.43844 18.1089 8.44052 18.1132 8.44126Z" fill="url(#paint9_linear_1038_3416)"/>
<path d="M36.2407 123.899C36.2415 123.902 36.2399 123.905 36.2364 123.908C28.9328 129.872 20.7526 135.386 11.8452 140.341C2.92565 145.292 -6.71463 149.678 -16.9076 153.425C-27.1007 157.171 -37.8396 160.271 -48.9115 162.69C-59.9931 165.105 -71.4009 166.833 -82.9452 167.846C-94.4896 168.86 -106.161 169.164 -117.744 168.761C-129.337 168.354 -140.835 167.234 -152.037 165.416C-163.238 163.599 -174.151 161.091 -184.555 157.944C-194.978 154.788 -204.882 150.997 -214.131 146.661C-204.601 150.74 -194.488 154.233 -183.958 157.064C-173.434 159.902 -162.503 162.073 -151.378 163.548C-140.243 165.027 -128.915 165.81 -117.608 165.893C-106.292 165.981 -94.9802 165.366 -83.8988 164.07C-72.8076 162.779 -61.9302 160.804 -51.4835 158.198C-41.0201 155.589 -30.9806 152.343 -21.5387 148.512C-12.0968 144.68 -3.25657 140.28 4.83067 135.384C12.9179 130.488 20.2355 125.098 26.6936 119.321C28.6105 117.607 32.2903 117.29 34.9655 118.518C37.6408 119.747 38.3094 122.052 36.3857 123.772C36.3398 123.814 36.3001 123.85 36.2461 123.888C36.2419 123.891 36.2397 123.895 36.2407 123.899Z" fill="url(#paint10_linear_1038_3416)"/>
<path d="M87.0566 98.8667C87.0592 98.8699 87.0591 98.8744 87.0566 98.8786C82.1844 106.96 76.1198 114.737 68.9688 122.059C61.8029 129.381 53.5541 136.238 44.3676 142.515C35.1811 148.791 25.0611 154.479 14.2221 159.493C3.37013 164.505 -8.19666 168.836 -20.2852 172.415C-32.3737 175.994 -44.971 178.825 -57.8405 180.864C-70.7229 182.901 -83.8734 184.139 -97.0639 184.551C-110.254 184.963 -123.489 184.558 -136.5 183.346C-149.538 182.128 -162.339 180.105 -174.71 177.346C-162.166 179.765 -149.292 181.417 -136.306 182.257C-123.325 183.105 -110.246 183.138 -97.3181 182.368C-84.3775 181.601 -71.5886 180.031 -59.188 177.701C-46.7744 175.374 -34.7318 172.281 -23.2965 168.492C-11.8482 164.706 -0.990045 160.219 9.06813 155.134C19.1435 150.043 28.423 144.346 36.7442 138.137C45.0653 131.928 52.4325 125.227 58.7178 118.144C65.0032 111.062 70.1895 103.604 74.2353 95.908C75.4364 93.6242 79.2928 92.49 82.8572 93.2596C86.4216 94.0291 88.3545 96.4054 87.1491 98.6975C87.121 98.753 87.0967 98.8009 87.0576 98.8534C87.0542 98.8579 87.0538 98.8632 87.0566 98.8667Z" fill="url(#paint11_linear_1038_3416)"/>
<path d="M45.1681 -59.0971C45.1746 -59.0975 45.1806 -59.0962 45.1849 -59.0936C56.1484 -52.5152 66.128 -45.2762 74.9231 -37.5096C83.7102 -29.7341 91.3007 -21.4371 97.5673 -12.7629C103.834 -4.08879 108.765 4.95622 112.315 14.1957C115.856 23.4426 118.004 32.8777 118.727 42.3445C119.45 51.8113 118.758 61.3023 116.682 70.6438C114.595 79.9927 111.112 89.1858 106.285 98.0619C101.459 106.938 95.3006 115.503 87.9374 123.585C80.5547 131.682 71.9769 139.288 62.3943 146.303C71.5015 139.032 79.5144 131.224 86.2679 123.004C93.0329 114.79 98.5286 106.173 102.671 97.3213C106.823 88.4625 109.621 79.3697 111.036 70.2167C112.461 61.0564 112.5 51.8222 111.168 42.6994C109.846 33.5691 107.152 24.5364 103.163 15.7827C99.172 7.01544 93.8755 -1.47901 87.3576 -9.55389C80.8397 -17.6288 73.1334 -25.279 64.3639 -32.374C55.5945 -39.4691 45.7639 -45.9951 35.077 -51.8674C31.9057 -53.6103 31.6871 -56.6272 34.4075 -58.6591C37.1278 -60.6911 41.7518 -60.9778 44.9347 -59.2286C45.0132 -59.1864 45.0809 -59.15 45.1499 -59.1014C45.1544 -59.0983 45.1609 -59.0967 45.1681 -59.0971Z" fill="url(#paint12_linear_1038_3416)"/>
<path d="M131.06 1.99963C131.066 2.00148 131.071 2.00536 131.073 2.01004C135.817 12.0273 139.073 22.3241 140.765 32.7049C142.443 43.0919 142.55 53.5532 141.091 63.9084C139.631 74.2635 136.598 84.5027 132.1 94.4439C127.586 104.389 121.6 114.025 114.245 123.195C106.891 132.366 98.1825 141.065 88.2965 149.142C78.395 157.222 67.3101 164.668 55.2289 171.348C43.1476 178.027 30.0756 183.95 16.2788 188.997C2.45095 194.052 -12.0863 198.228 -27.0685 201.498C-12.3172 197.822 1.85975 193.258 15.1992 187.868C28.5444 182.488 41.0366 176.285 52.4524 169.39C63.8836 162.492 74.2383 154.901 83.3407 146.772C92.4585 138.639 100.334 129.954 106.824 120.896C113.329 111.834 118.458 102.386 122.13 92.7494C125.813 83.0995 128.034 73.2517 128.749 63.3735C129.463 53.4953 128.697 43.6029 126.459 33.8632C124.22 24.1234 120.499 14.5498 115.416 5.29373C113.908 2.54665 116.264 -0.371526 120.551 -1.3377C124.838 -2.30387 129.438 -0.962604 130.951 1.79439C130.989 1.86104 131.022 1.91854 131.046 1.98766C131.047 1.99298 131.053 1.99756 131.06 1.99963Z" fill="url(#paint13_linear_1038_3416)"/>
<path d="M149.749 120.11C149.752 120.114 149.752 120.12 149.748 120.126C142.669 130.749 134.023 140.932 123.962 150.476C113.882 160.018 102.392 168.91 89.6952 177C76.9982 185.089 63.1 192.366 48.2926 198.725C33.4682 205.08 17.7407 210.505 1.37255 214.914C-14.9956 219.323 -31.9873 222.72 -49.2843 225.054C-66.5984 227.384 -84.2116 228.641 -101.818 228.797C-119.425 228.952 -137.03 228.018 -154.28 226.015C-171.565 224.003 -188.476 220.927 -204.759 216.881C-188.221 220.478 -171.185 223.063 -153.943 224.569C-136.707 226.087 -119.281 226.521 -101.998 225.88C-84.699 225.244 -67.5435 223.534 -50.8502 220.799C-34.1398 218.067 -17.8682 214.305 -2.35523 209.597C13.1748 204.894 27.9694 199.238 41.7415 192.762C55.5368 186.279 68.3158 178.964 79.8547 170.938C91.3937 162.913 101.697 154.203 110.587 144.953C119.477 135.703 126.929 125.919 132.879 115.785C134.646 112.778 139.867 111.382 144.561 112.513C149.254 113.645 151.657 116.869 149.885 119.887C149.843 119.96 149.807 120.024 149.751 120.092C149.747 120.098 149.746 120.105 149.749 120.11Z" fill="url(#paint14_linear_1038_3416)"/>
<path d="M-1.05187 185.41C-1.05351 185.413 -1.05795 185.417 -1.06394 185.419C-14.4612 189.77 -28.4909 193.302 -42.889 195.941C-57.298 198.572 -72.0626 200.305 -86.9274 201.111C-101.792 201.917 -116.744 201.793 -131.509 200.77C-146.282 199.739 -160.854 197.806 -174.985 195.003C-189.117 192.201 -202.8 188.538 -215.79 184.093C-228.787 179.639 -241.079 174.398 -252.445 168.456C-263.812 162.514 -274.268 155.877 -283.602 148.679C-292.952 141.465 -301.174 133.699 -308.185 125.53C-300.636 133.5 -291.925 140.995 -282.179 147.873C-272.447 154.755 -261.688 161.011 -250.123 166.533C-238.551 172.063 -226.172 176.857 -213.232 180.84C-200.285 184.83 -186.756 188.012 -172.92 190.331C-159.078 192.658 -144.909 194.125 -130.706 194.717C-116.483 195.313 -102.214 195.029 -88.1419 193.866C-74.0699 192.704 -60.2143 190.681 -46.8094 187.827C-33.4045 184.974 -20.4711 181.287 -8.20367 176.861C-4.56277 175.548 -0.0634643 176.448 1.98617 178.781C4.0358 181.114 2.87484 183.996 -0.77917 185.314C-0.867497 185.347 -0.943678 185.375 -1.03784 185.4C-1.04474 185.401 -1.05003 185.405 -1.05187 185.41Z" fill="url(#paint15_linear_1038_3416)"/>
<path d="M-55.7267 -4.65584C-55.724 -4.65632 -55.7209 -4.65598 -55.7183 -4.65492C-50.0562 -2.288 -44.7496 0.421044 -39.9037 3.42321C-35.0601 6.42986 -30.6833 9.72758 -26.8473 13.2588C-23.0113 16.79 -19.722 20.5524 -17.0212 24.4703C-14.3238 28.3919 -12.2207 32.4666 -10.7453 36.6268C-9.26985 40.787 -8.41872 45.0287 -8.19975 49.2736C-7.98418 53.5222 -8.4067 57.7717 -9.46339 61.948C-10.5201 66.1242 -12.2051 70.2293 -14.4831 74.1806C-16.7679 78.1394 -19.6424 81.9406 -23.0343 85.5302C-19.8843 81.8511 -17.2849 77.9885 -15.294 74.0066C-13.2972 70.0269 -11.9124 65.9318 -11.156 61.8007C-10.3962 57.6659 -10.265 53.4951 -10.7544 49.367C-11.2403 45.2351 -12.3494 41.1399 -14.0526 37.1627C-15.7523 33.1816 -18.0487 29.3126 -20.8847 25.6321C-23.7232 21.9456 -27.1073 18.4455 -30.9815 15.1926C-34.8558 11.9396 -39.205 8.93435 -43.9578 6.22848C-48.7106 3.52262 -53.8644 1.1221 -59.3179 -0.945714C-60.9363 -1.55951 -61.4012 -2.88587 -60.4432 -3.9228C-59.4853 -4.95974 -57.4705 -5.31841 -55.8463 -4.70244C-55.8065 -4.68773 -55.7722 -4.67504 -55.7359 -4.65712C-55.7332 -4.65581 -55.7298 -4.65532 -55.7267 -4.65584Z" fill="url(#paint16_linear_1038_3416)"/>
<path d="M-149.812 -22.2531C-149.81 -22.255 -149.808 -22.2565 -149.805 -22.2571C-142.257 -23.7244 -134.498 -24.7316 -126.677 -25.2552C-118.85 -25.774 -110.968 -25.8073 -103.166 -25.3558C-95.3639 -24.9043 -87.6492 -23.9663 -80.159 -22.5748C-72.6661 -21.1785 -65.4052 -19.3271 -58.496 -17.0521C-51.5867 -14.7772 -45.0318 -12.0836 -38.9466 -9.0257C-32.8588 -5.96301 -27.2482 -2.53428 -22.2154 1.20265C-17.1826 4.93957 -12.7202 8.98295 -8.91707 13.2505C-5.10851 17.5277 -1.96203 22.0243 0.501308 26.6585C-2.26828 22.0957 -5.70675 17.7106 -9.76786 13.5845C-13.8215 9.45659 -18.4951 5.59253 -23.6901 2.06146C-28.8878 -1.47439 -34.607 -4.67727 -40.7321 -7.49279C-46.8599 -10.3131 -53.4038 -12.7491 -60.2288 -14.7564C-67.0564 -16.7685 -74.1752 -18.355 -81.4357 -19.4911C-88.7064 -20.6303 -96.1263 -21.3173 -103.569 -21.5382C-111.012 -21.7592 -118.465 -21.5223 -125.804 -20.8299C-133.142 -20.1375 -140.356 -18.9865 -147.33 -17.4144C-149.399 -16.9479 -151.598 -17.6764 -152.326 -19.0026C-153.054 -20.3287 -152.043 -21.7514 -149.966 -22.2196C-149.916 -22.2314 -149.872 -22.2415 -149.819 -22.2489C-149.816 -22.2494 -149.813 -22.2509 -149.812 -22.2531Z" fill="url(#paint17_linear_1038_3416)"/>
<path d="M-78.8624 -46.5295C-78.8588 -46.5311 -78.8544 -46.5316 -78.8503 -46.531C-68.9739 -45.0559 -59.3248 -42.9818 -50.0903 -40.343C-40.8556 -37.6971 -32.0458 -34.4876 -23.8114 -30.7712C-15.577 -27.0548 -7.92807 -22.8326 -0.984137 -18.1981C5.95802 -13.5571 12.1851 -8.50487 17.5958 -3.12594C23.0065 2.25299 27.6026 7.95217 31.3101 13.8635C35.0158 19.7812 37.8228 25.91 39.6773 32.1439C41.5318 38.3778 42.4437 44.718 42.3965 51.0363C42.3458 57.3674 41.3377 63.6703 39.4309 69.8449C40.9251 63.6236 41.4962 57.3246 41.1142 51.0576C40.7422 44.7917 39.4152 38.5642 37.1736 32.4927C34.9338 26.4147 31.7792 20.4928 27.7841 14.8349C23.7907 9.17057 18.9483 3.76275 13.363 -1.28349C7.77954 -6.33617 1.44481 -11.0349 -5.49963 -15.2904C-12.4524 -19.5536 -20.0249 -23.3748 -28.0904 -26.6864C-36.156 -29.9981 -44.6928 -32.8045 -53.5585 -35.0562C-62.4243 -37.3079 -71.6109 -38.9974 -80.9536 -40.1195C-83.7263 -40.4526 -85.4436 -42.1694 -84.9235 -43.9459C-84.4035 -45.7224 -81.8509 -46.8902 -79.0682 -46.5559C-79.0002 -46.5482 -78.9415 -46.5416 -78.8758 -46.5282C-78.8713 -46.5272 -78.8663 -46.5277 -78.8624 -46.5295Z" fill="url(#paint18_linear_1038_3416)"/>
<path d="M-121.52 -65.4571C-121.517 -65.4596 -121.512 -65.4611 -121.507 -65.4612C-109.682 -65.7097 -97.831 -65.2391 -86.1808 -64.052C-74.5272 -62.857 -63.0868 -60.9446 -52.0559 -58.3496C-41.025 -55.7546 -30.4155 -52.4765 -20.4062 -48.5972C-10.3958 -44.7104 -0.997481 -40.2217 7.63484 -35.2069C16.2672 -30.1921 24.1324 -24.6589 31.0963 -18.7146C38.0612 -12.7628 44.1127 -6.39931 49.1404 0.26697C54.1681 6.93325 58.1837 13.9017 61.1082 21.031C64.0347 28.1755 65.8691 35.4732 66.6302 42.8005C65.382 35.5005 63.0571 28.2916 59.6732 21.3031C56.301 14.314 51.8708 7.55285 46.4834 1.14447C41.0949 -5.27152 34.7492 -11.3348 27.5806 -16.9377C20.4109 -22.5483 12.4055 -27.7056 3.73321 -32.3117C-4.9401 -36.9254 -14.2932 -40.9948 -24.1245 -44.4469C-33.9687 -47.906 -44.3031 -50.7471 -54.953 -52.9186C-65.6029 -55.0901 -76.5456 -56.601 -87.5977 -57.4232C-98.6499 -58.2455 -109.799 -58.3721 -120.856 -57.8289C-124.137 -57.668 -126.882 -59.2704 -127.133 -61.3729C-127.384 -63.4755 -125.058 -65.2854 -121.764 -65.447C-121.684 -65.4515 -121.615 -65.4554 -121.534 -65.453C-121.529 -65.4528 -121.524 -65.4543 -121.52 -65.4571Z" fill="url(#paint19_linear_1038_3416)"/>
<path d="M-184.112 -74.3088C-184.11 -74.3123 -184.106 -74.3148 -184.1 -74.3159C-171.306 -77.1192 -158.108 -79.1422 -144.756 -80.339C-131.397 -81.5279 -117.896 -81.887 -104.487 -81.4126C-91.0775 -80.9381 -77.7727 -79.6268 -64.8102 -77.53C-51.8427 -75.4251 -39.2302 -72.5314 -27.1806 -68.8988C-15.1309 -65.2661 -3.64922 -60.9026 7.06162 -55.8969C17.7776 -50.8832 27.71 -45.224 36.6813 -39.0147C45.6526 -32.8054 53.6754 -26.0491 60.5896 -18.8835C67.5139 -11.7017 73.3245 -4.11852 77.9775 3.72662C72.8064 -3.98442 66.5061 -11.3654 59.1631 -18.2788C51.8328 -25.1955 43.465 -31.6364 34.235 -37.4868C24.9999 -43.3453 14.9025 -48.6134 4.14588 -53.2023C-6.6159 -57.7992 -18.0547 -61.7218 -29.9349 -64.8992C-41.8202 -68.0848 -54.1645 -70.5299 -66.7096 -72.198C-79.2725 -73.8709 -92.0487 -74.7634 -104.821 -74.8567C-117.593 -74.9499 -130.34 -74.2585 -142.848 -72.7909C-155.356 -71.3234 -167.606 -69.0749 -179.408 -66.1141C-182.91 -65.2356 -186.745 -66.3993 -188.116 -68.6435C-189.487 -70.8876 -187.889 -73.3638 -184.374 -74.2455C-184.288 -74.2676 -184.214 -74.2867 -184.125 -74.3014C-184.119 -74.3023 -184.114 -74.305 -184.112 -74.3088Z" fill="url(#paint20_linear_1038_3416)"/>
<path d="M-328.21 -33.6415C-328.211 -33.6459 -328.21 -33.6504 -328.207 -33.654C-319.279 -42.4216 -309.061 -50.6386 -297.737 -58.1423C-286.397 -65.6423 -273.959 -72.4194 -260.64 -78.3592C-247.321 -84.2989 -233.13 -89.3921 -218.353 -93.5741C-203.562 -97.7508 -188.193 -101.007 -172.501 -103.292C-156.81 -105.576 -140.811 -106.894 -124.801 -107.233C-108.776 -107.567 -92.7478 -106.913 -76.9961 -105.277C-61.2443 -103.641 -45.7608 -101.031 -30.8575 -97.5041C-15.9258 -93.9662 -1.58854 -89.5153 11.9507 -84.2632C-1.92609 -89.1407 -16.495 -93.1657 -31.5137 -96.2484C-46.5241 -99.3403 -61.9701 -101.485 -77.5514 -102.656C-93.1471 -103.832 -108.878 -104.036 -124.448 -103.278C-140.033 -102.525 -155.479 -100.808 -170.48 -98.1707C-185.496 -95.5388 -200.089 -91.9831 -213.971 -87.5917C-227.875 -83.1965 -241.077 -77.9566 -253.346 -71.9576C-265.616 -65.9586 -276.951 -59.2241 -287.157 -51.8648C-297.362 -44.5055 -306.417 -36.5253 -314.216 -28.0809C-316.531 -25.5749 -321.534 -24.8551 -325.445 -26.3384C-329.356 -27.8218 -330.709 -30.9414 -328.385 -33.4565C-328.33 -33.5183 -328.282 -33.5716 -328.214 -33.628C-328.209 -33.6318 -328.208 -33.6367 -328.21 -33.6415Z" fill="url(#paint21_linear_1038_3416)"/>
<path d="M-199.012 -118.735C-199.008 -118.739 -199.003 -118.743 -198.996 -118.744C-181.744 -122.098 -164.01 -124.4 -146.131 -125.597C-128.243 -126.783 -110.227 -126.859 -92.3934 -125.827C-74.5598 -124.795 -56.9261 -122.651 -39.8056 -119.47C-22.679 -116.279 -6.08276 -112.047 9.70983 -106.847C25.5024 -101.647 40.4851 -95.4904 54.394 -88.5009C68.3091 -81.5005 81.1333 -73.6633 92.6368 -65.1218C104.14 -56.5803 114.34 -47.3383 123.033 -37.5838C131.738 -27.8074 138.93 -17.5294 144.561 -6.93688C138.23 -17.3662 130.371 -27.3894 121.088 -36.8205C111.823 -46.2557 101.14 -55.0878 89.2661 -63.1588C77.3856 -71.2408 64.3133 -78.5616 50.313 -84.9971C36.3066 -91.4435 21.349 -97.0115 5.74918 -101.6C-9.85685 -106.199 -26.1284 -109.825 -42.7239 -112.422C-59.3426 -115.026 -76.3024 -116.596 -93.3145 -117.101C-110.327 -117.606 -127.363 -117.065 -144.137 -115.482C-160.91 -113.899 -177.398 -111.269 -193.339 -107.675C-198.069 -106.609 -203.095 -108.274 -204.759 -111.305C-206.423 -114.336 -204.113 -117.588 -199.365 -118.658C-199.249 -118.685 -199.15 -118.709 -199.029 -118.725C-199.022 -118.726 -199.015 -118.73 -199.012 -118.735Z" fill="url(#paint22_linear_1038_3416)"/>
</g>
<path d="M-111.544 271.069C76.6062 271.069 229.132 173.341 229.132 52.7882C229.132 -67.7649 76.6062 -165.492 -111.544 -165.492C-299.695 -165.492 -452.221 -67.7649 -452.221 52.7882C-452.221 173.341 -299.695 271.069 -111.544 271.069Z" fill="url(#paint23_radial_1038_3416)" fill-opacity="0.05"/>
</g>
<defs>
<linearGradient id="paint0_linear_1038_3416" x1="-452.221" y1="52.7882" x2="229.132" y2="52.7882" gradientUnits="userSpaceOnUse">
<stop stop-color="#0072FF"/>
<stop offset="1" stop-color="#0072FF"/>
</linearGradient>
<linearGradient id="paint1_linear_1038_3416" x1="-338.663" y1="52.788" x2="115.573" y2="52.788" gradientUnits="userSpaceOnUse">
<stop stop-color="#0072FF"/>
<stop offset="1" stop-color="#0072FF"/>
</linearGradient>
<linearGradient id="paint2_linear_1038_3416" x1="-315.951" y1="52.788" x2="92.8615" y2="52.788" gradientUnits="userSpaceOnUse">
<stop stop-color="#0072FF"/>
<stop offset="1" stop-color="#0072FF"/>
</linearGradient>
<linearGradient id="paint3_linear_1038_3416" x1="-304.595" y1="52.7881" x2="81.5057" y2="52.7881" gradientUnits="userSpaceOnUse">
<stop stop-color="#0072FF"/>
<stop offset="1" stop-color="#0072FF"/>
</linearGradient>
<linearGradient id="paint4_linear_1038_3416" x1="-299.03" y1="52.788" x2="75.9414" y2="52.788" gradientUnits="userSpaceOnUse">
<stop stop-color="#0072FF"/>
<stop offset="1" stop-color="#0072FF"/>
</linearGradient>
<linearGradient id="paint5_linear_1038_3416" x1="-276.205" y1="52.7879" x2="53.1158" y2="52.7879" gradientUnits="userSpaceOnUse">
<stop stop-color="#0072FF"/>
<stop offset="1" stop-color="#0072FF"/>
</linearGradient>
<linearGradient id="paint6_linear_1038_3416" x1="-253.493" y1="52.7879" x2="30.4042" y2="52.7879" gradientUnits="userSpaceOnUse">
<stop stop-color="#0072FF"/>
<stop offset="1" stop-color="#0072FF"/>
</linearGradient>
<linearGradient id="paint7_linear_1038_3416" x1="-244.977" y1="52.7879" x2="21.8869" y2="52.7879" gradientUnits="userSpaceOnUse">
<stop stop-color="#0072FF"/>
<stop offset="1" stop-color="#0072FF"/>
</linearGradient>
<linearGradient id="paint8_linear_1038_3416" x1="-131.935" y1="88.6834" x2="-32.8048" y2="144.995" gradientUnits="userSpaceOnUse">
<stop stop-color="#004294"/>
<stop offset="1" stop-color="#286FC7" stop-opacity="0.4"/>
</linearGradient>
<linearGradient id="paint9_linear_1038_3416" x1="-75.9861" y1="92.2494" x2="17.6753" y2="7.8523" gradientUnits="userSpaceOnUse">
<stop stop-color="#004294"/>
<stop offset="1" stop-color="#286FC7" stop-opacity="0.4"/>
</linearGradient>
<linearGradient id="paint10_linear_1038_3416" x1="-162.838" y1="99.7244" x2="-60.0161" y2="212.091" gradientUnits="userSpaceOnUse">
<stop stop-color="#004294"/>
<stop offset="1" stop-color="#286FC7" stop-opacity="0.4"/>
</linearGradient>
<linearGradient id="paint11_linear_1038_3416" x1="-143.127" y1="115.067" x2="33.5323" y2="204.653" gradientUnits="userSpaceOnUse">
<stop stop-color="#004294"/>
<stop offset="1" stop-color="#286FC7" stop-opacity="0.4"/>
</linearGradient>
<linearGradient id="paint12_linear_1038_3416" x1="-24.5751" y1="99.5457" x2="57.2748" y2="-52.6954" gradientUnits="userSpaceOnUse">
<stop stop-color="#004294"/>
<stop offset="1" stop-color="#286FC7" stop-opacity="0.4"/>
</linearGradient>
<linearGradient id="paint13_linear_1038_3416" x1="-69.3064" y1="127.143" x2="136.035" y2="10.4969" gradientUnits="userSpaceOnUse">
<stop stop-color="#004294"/>
<stop offset="1" stop-color="#286FC7" stop-opacity="0.4"/>
</linearGradient>
<linearGradient id="paint14_linear_1038_3416" x1="-158.152" y1="134.835" x2="68.4318" y2="263.548" gradientUnits="userSpaceOnUse">
<stop stop-color="#004294"/>
<stop offset="1" stop-color="#286FC7" stop-opacity="0.4"/>
</linearGradient>
<linearGradient id="paint15_linear_1038_3416" x1="-209.865" y1="89.159" x2="-153.379" y2="241.854" gradientUnits="userSpaceOnUse">
<stop stop-color="#004294"/>
<stop offset="1" stop-color="#286FC7" stop-opacity="0.4"/>
</linearGradient>
<linearGradient id="paint16_linear_1038_3416" x1="-67.2895" y1="69.1592" x2="-41.8647" y2="0.429335" gradientUnits="userSpaceOnUse">
<stop stop-color="#004294"/>
<stop offset="1" stop-color="#286FC7" stop-opacity="0.4"/>
</linearGradient>
<linearGradient id="paint17_linear_1038_3416" x1="-55.5217" y1="39.7234" x2="-74.103" y2="-39.9546" gradientUnits="userSpaceOnUse">
<stop stop-color="#004294"/>
<stop offset="1" stop-color="#286FC7" stop-opacity="0.4"/>
</linearGradient>
<linearGradient id="paint18_linear_1038_3416" x1="-36.0569" y1="61.3165" x2="-24.5594" y2="-40.4508" gradientUnits="userSpaceOnUse">
<stop stop-color="#004294"/>
<stop offset="1" stop-color="#286FC7" stop-opacity="0.4"/>
</linearGradient>
<linearGradient id="paint19_linear_1038_3416" x1="-22.4572" y1="47.7944" x2="-29.0997" y2="-70.7028" gradientUnits="userSpaceOnUse">
<stop stop-color="#004294"/>
<stop offset="1" stop-color="#286FC7" stop-opacity="0.4"/>
</linearGradient>
<linearGradient id="paint20_linear_1038_3416" x1="-16.7835" y1="28.2574" x2="-52.1957" y2="-108.538" gradientUnits="userSpaceOnUse">
<stop stop-color="#004294"/>
<stop offset="1" stop-color="#286FC7" stop-opacity="0.4"/>
</linearGradient>
<linearGradient id="paint21_linear_1038_3416" x1="-49.797" y1="-15.7375" x2="-212.443" y2="-162.295" gradientUnits="userSpaceOnUse">
<stop stop-color="#004294"/>
<stop offset="1" stop-color="#286FC7" stop-opacity="0.4"/>
</linearGradient>
<linearGradient id="paint22_linear_1038_3416" x1="16.5082" y1="22.9257" x2="-25.9635" y2="-159.196" gradientUnits="userSpaceOnUse">
<stop stop-color="#004294"/>
<stop offset="1" stop-color="#286FC7" stop-opacity="0.4"/>
</linearGradient>
<radialGradient id="paint23_radial_1038_3416" cx="0" cy="0" r="1" gradientUnits="userSpaceOnUse" gradientTransform="translate(-111.544 52.7882) scale(340.677 218.281)">
<stop/>
<stop offset="0.455" stop-color="#0072FF"/>
</radialGradient>
</defs>
</svg>
