<svg width="249" height="99" viewBox="0 0 249 99" fill="none" xmlns="http://www.w3.org/2000/svg">
<mask id="mask0_1163_2195" style="mask-type:alpha" maskUnits="userSpaceOnUse" x="0" y="0" width="191" height="99">
<path d="M0.873903 10C0.873903 4.47715 5.35106 0 10.8739 0H180.073C185.596 0 190.073 4.47715 190.073 10V89C190.073 94.5229 185.596 99 180.073 99H10.8739C5.35105 99 0.873903 94.5229 0.873903 89V10Z" fill="#101828"/>
</mask>
<g mask="url(#mask0_1163_2195)">
<path d="M-110.671 271.069C77.4801 271.069 230.006 173.341 230.006 52.7881C230.006 -67.7649 77.4801 -165.492 -110.671 -165.492C-298.821 -165.492 -451.347 -67.7649 -451.347 52.7881C-451.347 173.341 -298.821 271.069 -110.671 271.069Z" fill="url(#paint0_radial_1163_2195)"/>
<g opacity="0.5">
<path d="M-110.67 198.309C14.7633 198.309 116.447 133.157 116.447 52.7881C116.447 -27.5806 14.7633 -92.7323 -110.67 -92.7323C-236.104 -92.7323 -337.788 -27.5806 -337.788 52.7881C-337.788 133.157 -236.104 198.309 -110.67 198.309Z" fill="url(#paint1_radial_1163_2195)"/>
<path d="M-110.67 183.756C2.21991 183.756 93.7357 125.12 93.7357 52.7881C93.7357 -19.5438 2.21991 -78.1803 -110.67 -78.1803C-223.561 -78.1803 -315.077 -19.5438 -315.077 52.7881C-315.077 125.12 -223.561 183.756 -110.67 183.756Z" fill="url(#paint2_radial_1163_2195)"/>
<path d="M-110.67 176.48C-4.05176 176.48 82.3798 121.102 82.3798 52.7881C82.3798 -15.5253 -4.05176 -70.9042 -110.67 -70.9042C-217.289 -70.9042 -303.721 -15.5253 -303.721 52.7881C-303.721 121.102 -217.289 176.48 -110.67 176.48Z" fill="url(#paint3_radial_1163_2195)"/>
<path d="M-110.67 172.915C-7.12485 172.915 76.8154 119.133 76.8154 52.7881C76.8154 -13.5562 -7.12485 -67.339 -110.67 -67.339C-214.216 -67.339 -298.156 -13.5562 -298.156 52.7881C-298.156 119.133 -214.216 172.915 -110.67 172.915Z" fill="url(#paint4_radial_1163_2195)"/>
<path d="M-110.67 158.29C-19.731 158.29 53.99 111.055 53.99 52.7881C53.99 -5.47919 -19.731 -52.7142 -110.67 -52.7142C-201.61 -52.7142 -275.331 -5.47919 -275.331 52.7881C-275.331 111.055 -201.61 158.29 -110.67 158.29Z" fill="url(#paint5_radial_1163_2195)"/>
<path d="M-110.67 143.738C-32.2744 143.738 31.2782 103.019 31.2782 52.7882C31.2782 2.55771 -32.2744 -38.1621 -110.67 -38.1621C-189.067 -38.1621 -252.619 2.55771 -252.619 52.7882C-252.619 103.019 -189.067 143.738 -110.67 143.738Z" fill="url(#paint6_radial_1163_2195)"/>
<path d="M-110.67 138.281C-36.978 138.281 22.7614 100.005 22.7614 52.7881C22.7614 5.57149 -36.978 -32.7051 -110.67 -32.7051C-184.363 -32.7051 -244.102 5.57149 -244.102 52.7881C-244.102 100.005 -184.363 138.281 -110.67 138.281Z" fill="url(#paint7_radial_1163_2195)"/>
</g>
<g opacity="0.2">
<path d="M3.64571 82.2415C3.64707 82.2433 3.64693 82.246 3.64534 82.2484C0.548161 86.8959 -3.23446 91.351 -7.63599 95.5264C-12.0462 99.7012 -17.0729 103.591 -22.6279 107.131C-28.1829 110.67 -34.2633 113.854 -40.7415 116.635C-47.2272 119.416 -54.108 121.789 -61.2691 123.718C-68.4301 125.647 -75.864 127.133 -83.4314 128.154C-91.0063 129.174 -98.7121 129.724 -106.415 129.792C-114.118 129.86 -121.82 129.451 -129.367 128.575C-136.929 127.695 -144.328 126.349 -151.452 124.579C-144.216 126.152 -136.763 127.284 -129.22 127.942C-121.679 128.606 -114.055 128.796 -106.494 128.516C-98.9254 128.238 -91.4198 127.489 -84.1165 126.293C-76.8057 125.098 -69.6869 123.452 -62.9 121.392C-56.1056 119.334 -49.6329 116.86 -43.6077 114.027C-37.5722 111.19 -31.9814 107.99 -26.9331 104.479C-21.8848 100.968 -17.377 97.1572 -13.4877 93.1103C-9.59844 89.0633 -6.33796 84.783 -3.73481 80.3494C-2.96203 79.0336 -0.6778 78.4227 1.37569 78.9178C3.42918 79.413 4.48052 80.8235 3.70501 82.144C3.68683 82.176 3.67114 82.2036 3.64667 82.2337C3.64457 82.2363 3.64418 82.2394 3.64571 82.2415Z" fill="url(#paint8_linear_1163_2195)"/>
<path d="M18.9873 8.44138C18.9911 8.44204 18.9944 8.4438 18.9963 8.44616C23.2499 13.8232 26.7035 19.4541 29.2836 25.2329C31.856 31.0161 33.5496 36.9419 34.3379 42.908C35.1262 48.8741 35.0044 54.8752 34.0047 60.8011C32.9968 66.7301 31.1063 72.5788 28.3665 78.2505C25.6267 83.9222 22.0459 89.4139 17.6999 94.6275C13.3457 99.8442 8.22143 104.777 2.41248 109.34C-3.39648 113.902 -9.88544 118.098 -16.9221 121.845C-23.9751 125.597 -31.5676 128.897 -39.554 131.711C-31.762 128.681 -24.4343 125.185 -17.7105 121.273C-10.982 117.367 -4.86552 113.049 0.532417 108.407C5.93857 103.763 10.6262 98.7946 14.5196 93.6012C18.4211 88.4047 21.5319 82.9746 23.7985 77.4218C26.0734 71.8659 27.5075 66.1791 28.0866 60.4789C28.6691 54.7704 28.3917 49.0432 27.2551 43.3954C26.1185 37.7476 24.1405 32.1865 21.3509 26.8064C18.5614 21.4263 14.9569 16.2354 10.6298 11.3118C9.34593 9.8505 10.2261 8.04468 12.5067 7.22205C14.7874 6.39942 17.6051 6.86538 18.8938 8.33193C18.9258 8.36741 18.9533 8.39801 18.9776 8.43584C18.9794 8.43856 18.983 8.44064 18.9873 8.44138Z" fill="url(#paint9_linear_1163_2195)"/>
<path d="M37.1147 123.899C37.1155 123.902 37.1139 123.905 37.1104 123.908C29.8068 129.872 21.6266 135.386 12.7191 140.341C3.79963 145.293 -5.84065 149.679 -16.0337 153.425C-26.2267 157.171 -36.9656 160.271 -48.0375 162.691C-59.1191 165.105 -70.5269 166.833 -82.0713 167.847C-93.6156 168.86 -105.287 169.164 -116.87 168.761C-128.463 168.354 -139.961 167.234 -151.163 165.416C-162.365 163.599 -173.277 161.091 -183.681 157.944C-194.104 154.788 -204.008 150.997 -213.257 146.661C-203.727 150.741 -193.614 154.233 -183.084 157.064C-172.56 159.902 -161.629 162.073 -150.504 163.548C-139.369 165.028 -128.041 165.81 -116.735 165.893C-105.418 165.981 -94.1062 165.366 -83.0248 164.071C-71.9336 162.779 -61.0562 160.804 -50.6095 158.198C-40.1461 155.589 -30.1066 152.343 -20.6647 148.512C-11.2228 144.68 -2.38259 140.281 5.70465 135.384C13.7919 130.488 21.1095 125.098 27.5676 119.321C29.4845 117.607 33.1643 117.29 35.8395 118.518C38.5148 119.747 39.1834 122.052 37.2597 123.772C37.2137 123.814 37.1741 123.85 37.1201 123.888C37.1158 123.891 37.1137 123.895 37.1147 123.899Z" fill="url(#paint10_linear_1163_2195)"/>
<path d="M87.9309 98.8667C87.9334 98.8699 87.9334 98.8744 87.9309 98.8786C83.0587 106.96 76.9941 114.737 69.8431 122.059C62.6772 129.381 54.4284 136.238 45.2419 142.515C36.0554 148.791 25.9354 154.479 15.0964 159.493C4.24442 164.505 -7.32237 168.836 -19.4109 172.415C-31.4994 175.994 -44.0967 178.825 -56.9662 180.864C-69.8486 182.901 -82.9991 184.139 -96.1896 184.551C-109.38 184.963 -122.615 184.558 -135.626 183.346C-148.663 182.128 -161.465 180.105 -173.835 177.346C-161.292 179.765 -148.418 181.417 -135.432 182.257C-122.451 183.105 -109.371 183.138 -96.4438 182.368C-83.5032 181.601 -70.7144 180.031 -58.3137 177.701C-45.9001 175.374 -33.8575 172.281 -22.4222 168.492C-10.9739 164.706 -0.115755 160.219 9.94242 155.134C20.0178 150.043 29.2973 144.346 37.6184 138.137C45.9396 131.928 53.3068 125.227 59.5921 118.144C65.8775 111.062 71.0638 103.604 75.1096 95.908C76.3107 93.6242 80.1671 92.49 83.7315 93.2596C87.2958 94.0291 89.2288 96.4054 88.0234 98.6975C87.9953 98.753 87.971 98.8009 87.9319 98.8534C87.9285 98.8579 87.9281 98.8632 87.9309 98.8667Z" fill="url(#paint11_linear_1163_2195)"/>
<path d="M46.0422 -59.097C46.0487 -59.0974 46.0547 -59.0961 46.0591 -59.0935C57.0226 -52.5151 67.0022 -45.2761 75.7972 -37.5095C84.5844 -29.734 92.1748 -21.4369 98.4415 -12.7628C104.708 -4.08867 109.639 4.95635 113.19 14.1958C116.73 23.4427 118.878 32.8778 119.601 42.3446C120.324 51.8114 119.633 61.3024 117.556 70.6439C115.469 79.9928 111.986 89.186 107.16 98.062C102.333 106.938 96.1748 115.503 88.8116 123.585C81.4289 131.682 72.851 139.288 63.2685 146.303C72.3756 139.033 80.3886 131.224 87.142 123.004C93.9071 114.79 99.4028 106.173 103.545 97.3214C107.697 88.4626 110.495 79.3698 111.91 70.2169C113.335 61.0565 113.374 51.8224 112.042 42.6995C110.72 33.5692 108.026 24.5365 104.037 15.7828C100.046 7.01556 94.7496 -1.47889 88.2317 -9.55377C81.7138 -17.6286 74.0075 -25.2789 65.2381 -32.3739C56.4687 -39.4689 46.638 -45.995 35.9511 -51.8672C32.7798 -53.6102 32.5613 -56.6271 35.2816 -58.659C38.0019 -60.6909 42.6259 -60.9777 45.8088 -59.2285C45.8874 -59.1862 45.955 -59.1499 46.0241 -59.1013C46.0285 -59.0981 46.035 -59.0966 46.0422 -59.097Z" fill="url(#paint12_linear_1163_2195)"/>
<path d="M131.934 1.99963C131.94 2.00148 131.945 2.00536 131.947 2.01004C136.691 12.0273 139.947 22.3241 141.639 32.7049C143.317 43.0919 143.424 53.5532 141.965 63.9084C140.505 74.2635 137.472 84.5027 132.974 94.4439C128.46 104.389 122.474 114.025 115.119 123.195C107.765 132.366 99.0565 141.065 89.1705 149.142C79.269 157.222 68.1841 164.668 56.1029 171.348C44.0216 178.027 30.9497 183.95 17.1528 188.997C3.32497 194.052 -11.2123 198.228 -26.1945 201.498C-11.4432 197.822 2.73376 193.258 16.0733 187.868C29.4184 182.488 41.9106 176.285 53.3264 169.39C64.7576 162.492 75.1123 154.901 84.2147 146.772C93.3325 138.639 101.208 129.954 107.698 120.896C114.203 111.834 119.332 102.386 123.005 92.7494C126.687 83.0995 128.908 73.2517 129.623 63.3735C130.337 53.4953 129.571 43.6029 127.333 33.8632C125.094 24.1234 121.373 14.5498 116.29 5.29373C114.783 2.54665 117.138 -0.371526 121.425 -1.3377C125.712 -2.30387 130.312 -0.962604 131.825 1.79439C131.863 1.86104 131.896 1.91854 131.92 1.98766C131.922 1.99298 131.927 1.99756 131.934 1.99963Z" fill="url(#paint13_linear_1163_2195)"/>
<path d="M150.623 120.11C150.627 120.114 150.626 120.12 150.623 120.126C143.543 130.749 134.897 140.932 124.837 150.476C114.756 160.018 103.267 168.91 90.5695 176.999C77.8724 185.089 63.9743 192.366 49.1669 198.725C34.3425 205.08 18.615 210.505 2.24684 214.914C-14.1213 219.323 -31.113 222.72 -48.41 225.054C-65.7241 227.384 -83.3373 228.641 -100.944 228.796C-118.55 228.952 -136.156 228.018 -153.406 226.014C-170.69 224.003 -187.601 220.927 -203.885 216.881C-187.347 220.478 -170.311 223.063 -153.069 224.569C-135.832 226.086 -118.406 226.52 -101.124 225.88C-83.8247 225.244 -66.6692 223.533 -49.9759 220.798C-33.2655 218.067 -16.9939 214.305 -1.48094 209.597C14.0491 204.894 28.8437 199.238 42.6158 192.762C56.4111 186.279 69.1901 178.964 80.729 170.938C92.268 162.913 102.572 154.203 111.461 144.953C120.351 135.703 127.804 125.919 133.754 115.785C135.52 112.778 140.741 111.381 145.435 112.513C150.129 113.645 152.532 116.869 150.759 119.887C150.717 119.96 150.682 120.024 150.626 120.092C150.621 120.098 150.62 120.105 150.623 120.11Z" fill="url(#paint14_linear_1163_2195)"/>
<path d="M-0.177941 185.41C-0.179588 185.414 -0.18403 185.417 -0.19002 185.419C-13.5873 189.77 -27.6169 193.302 -42.015 195.941C-56.4241 198.573 -71.1886 200.305 -86.0535 201.111C-100.918 201.918 -115.87 201.793 -130.635 200.77C-145.408 199.739 -159.98 197.806 -174.111 195.003C-188.243 192.201 -201.926 188.538 -214.916 184.093C-227.913 179.639 -240.205 174.398 -251.572 168.456C-262.938 162.514 -273.394 155.877 -282.728 148.679C-292.078 141.465 -300.3 133.699 -307.311 125.53C-299.762 133.5 -291.051 140.995 -281.305 147.873C-271.573 154.755 -260.814 161.012 -249.249 166.533C-237.677 172.063 -225.298 176.857 -212.359 180.84C-199.411 184.831 -185.882 188.012 -172.047 190.331C-158.204 192.658 -144.035 194.125 -129.832 194.717C-115.609 195.313 -101.34 195.029 -87.2679 193.866C-73.196 192.704 -59.3404 190.681 -45.9355 187.827C-32.5306 184.974 -19.5971 181.287 -7.32975 176.861C-3.68885 175.548 0.81046 176.448 2.8601 178.781C4.90973 181.114 3.74876 183.996 0.0947538 185.314C0.0064277 185.347 -0.0697533 185.375 -0.16392 185.4C-0.170815 185.402 -0.176108 185.405 -0.177941 185.41Z" fill="url(#paint15_linear_1163_2195)"/>
<path d="M-54.8523 -4.65596C-54.8496 -4.65644 -54.8465 -4.6561 -54.8439 -4.65504C-49.1818 -2.28812 -43.8752 0.420922 -39.0293 3.42308C-34.1857 6.42973 -29.8089 9.72746 -25.9729 13.2586C-22.1369 16.7898 -18.8476 20.5523 -16.1468 24.4701C-13.4494 28.3917 -11.3463 32.4665 -9.87087 36.6267C-8.39546 40.7868 -7.54432 45.0286 -7.32535 49.2735C-7.10978 53.5221 -7.53231 57.7716 -8.58899 61.9478C-9.64569 66.1241 -11.3307 70.2292 -13.6087 74.1805C-15.8935 78.1393 -18.768 81.9405 -22.1599 85.5301C-19.0099 81.851 -16.4105 77.9884 -14.4196 74.0065C-12.4228 70.0268 -11.038 65.9317 -10.2816 61.8006C-9.52183 57.6658 -9.39059 53.495 -9.87996 49.3669C-10.3659 45.235 -11.475 41.1398 -13.1782 37.1625C-14.8779 33.1815 -17.1743 29.3125 -20.0103 25.632C-22.8488 21.9455 -26.2329 18.4454 -30.1071 15.1924C-33.9814 11.9395 -38.3306 8.93423 -43.0834 6.22836C-47.8362 3.5225 -52.99 1.12198 -58.4435 -0.945836C-60.0619 -1.55964 -60.5268 -2.88599 -59.5688 -3.92293C-58.6109 -4.95986 -56.5961 -5.31853 -54.9719 -4.70256C-54.9321 -4.68785 -54.8978 -4.67517 -54.8615 -4.65724C-54.8588 -4.65593 -54.8554 -4.65544 -54.8523 -4.65596Z" fill="url(#paint16_linear_1163_2195)"/>
<path d="M-148.937 -22.2533C-148.936 -22.2553 -148.933 -22.2567 -148.93 -22.2573C-141.383 -23.7247 -133.624 -24.7319 -125.802 -25.2554C-117.976 -25.7743 -110.094 -25.8075 -102.292 -25.356C-94.4897 -24.9045 -86.7749 -23.9665 -79.2847 -22.575C-71.7918 -21.1788 -64.531 -19.3273 -57.6217 -17.0524C-50.7125 -14.7774 -44.1575 -12.0838 -38.0724 -9.02594C-31.9845 -5.96326 -26.3739 -2.53452 -21.3412 1.2024C-16.3084 4.93933 -11.8459 8.9827 -8.04283 13.2503C-4.23428 17.5275 -1.08779 22.0241 1.37555 26.6583C-1.39405 22.0955 -4.83251 17.7103 -8.89363 13.5842C-12.9473 9.45634 -17.6209 5.59229 -22.8159 2.06122C-28.0136 -1.47464 -33.7327 -4.67751 -39.8578 -7.49304C-45.9856 -10.3133 -52.5296 -12.7493 -59.3545 -14.7567C-66.1822 -16.7688 -73.3009 -18.3553 -80.5615 -19.4914C-87.8322 -20.6305 -95.2521 -21.3175 -102.695 -21.5384C-110.138 -21.7594 -117.591 -21.5226 -124.93 -20.8302C-132.268 -20.1378 -139.481 -18.9868 -146.455 -17.4146C-148.525 -16.9482 -150.724 -17.6766 -151.452 -19.0028C-152.18 -20.329 -151.169 -21.7516 -149.092 -22.2198C-149.041 -22.2316 -148.998 -22.2418 -148.945 -22.2491C-148.942 -22.2496 -148.939 -22.2511 -148.937 -22.2533Z" fill="url(#paint17_linear_1163_2195)"/>
<path d="M-77.9882 -46.5295C-77.9846 -46.5311 -77.9802 -46.5316 -77.9761 -46.531C-68.0997 -45.0559 -58.4505 -42.9818 -49.2161 -40.343C-39.9814 -37.6971 -31.1716 -34.4876 -22.9372 -30.7712C-14.7028 -27.0548 -7.05384 -22.8326 -0.109908 -18.1981C6.83225 -13.5571 13.0593 -8.50487 18.47 -3.12594C23.8807 2.25299 28.4768 7.95217 32.1843 13.8635C35.89 19.7812 38.6971 25.91 40.5515 32.1439C42.406 38.3778 43.3179 44.718 43.2708 51.0363C43.22 57.3674 42.212 63.6703 40.3051 69.8449C41.7993 63.6236 42.3704 57.3246 41.9884 51.0576C41.6164 44.7917 40.2895 38.5642 38.0478 32.4927C35.808 26.4147 32.6535 20.4928 28.6583 14.8349C24.6649 9.17057 19.8225 3.76275 14.2373 -1.28349C8.65377 -6.33617 2.31904 -11.0349 -4.6254 -15.2904C-11.5781 -19.5536 -19.1506 -23.3748 -27.2162 -26.6864C-35.2818 -29.9981 -43.8185 -32.8045 -52.6843 -35.0562C-61.5501 -37.3079 -70.7367 -38.9974 -80.0794 -40.1195C-82.852 -40.4526 -84.5693 -42.1694 -84.0493 -43.9459C-83.5293 -45.7224 -80.9766 -46.8902 -78.1939 -46.5559C-78.1259 -46.5482 -78.0673 -46.5416 -78.0016 -46.5282C-77.997 -46.5272 -77.9921 -46.5277 -77.9882 -46.5295Z" fill="url(#paint18_linear_1163_2195)"/>
<path d="M-120.646 -65.4573C-120.643 -65.4598 -120.638 -65.4613 -120.633 -65.4614C-108.808 -65.7099 -96.9569 -65.2393 -85.3068 -64.0522C-73.6531 -62.8573 -62.2127 -60.9448 -51.1819 -58.3498C-40.151 -55.7549 -29.5415 -52.4768 -19.5321 -48.5975C-9.52177 -44.7106 -0.123435 -40.2219 8.50889 -35.2071C17.1412 -30.1924 25.0065 -24.6591 31.9703 -18.7149C38.9352 -12.763 44.9868 -6.39956 50.0145 0.266726C55.0422 6.93301 59.0578 13.9014 61.9822 21.0307C64.9088 28.1752 66.7431 35.473 67.5042 42.8002C66.2561 35.5003 63.9312 28.2914 60.5472 21.3029C57.1751 14.3137 52.7449 7.55261 47.3574 1.14423C41.9689 -5.27176 35.6232 -11.335 28.4546 -16.938C21.285 -22.5486 13.2795 -27.7059 4.60725 -32.312C-4.06605 -36.9256 -13.4191 -40.9951 -23.2504 -44.4472C-33.0946 -47.9062 -43.429 -50.7473 -54.0789 -52.9188C-64.7288 -55.0904 -75.6715 -56.6013 -86.7237 -57.4235C-97.7758 -58.2457 -108.925 -58.3723 -119.982 -57.8292C-123.263 -57.6682 -126.008 -59.2706 -126.259 -61.3732C-126.51 -63.4757 -124.184 -65.2856 -120.89 -65.4473C-120.81 -65.4518 -120.741 -65.4557 -120.66 -65.4532C-120.655 -65.4531 -120.65 -65.4545 -120.646 -65.4573Z" fill="url(#paint19_linear_1163_2195)"/>
<path d="M-183.238 -74.3089C-183.236 -74.3124 -183.232 -74.3149 -183.226 -74.316C-170.432 -77.1193 -157.234 -79.1423 -143.882 -80.3391C-130.523 -81.528 -117.022 -81.8871 -103.613 -81.4127C-90.2035 -80.9382 -76.8986 -79.6269 -63.9362 -77.5301C-50.9687 -75.4252 -38.3562 -72.5315 -26.3065 -68.8989C-14.2569 -65.2662 -2.77518 -60.9027 7.93565 -55.8971C18.6516 -50.8833 28.5841 -45.2241 37.5554 -39.0148C46.5267 -32.8055 54.5495 -26.0493 61.4636 -18.8836C68.3879 -11.7018 74.1985 -4.11864 78.8515 3.7265C73.6805 -3.98454 67.3801 -11.3656 60.0371 -18.2789C52.7068 -25.1956 44.3391 -31.6365 35.109 -37.4869C25.8739 -43.3454 15.7766 -48.6135 5.01992 -53.2024C-5.74186 -57.7993 -17.1807 -61.7219 -29.0609 -64.8994C-40.9461 -68.0849 -53.2905 -70.53 -65.8356 -72.1981C-78.3984 -73.871 -91.1747 -74.7636 -103.947 -74.8568C-116.719 -74.95 -129.466 -74.2586 -141.974 -72.7911C-154.482 -71.3235 -166.732 -69.075 -178.534 -66.1142C-182.036 -65.2357 -185.871 -66.3995 -187.242 -68.6436C-188.613 -70.8878 -187.015 -73.3639 -183.5 -74.2456C-183.414 -74.2678 -183.34 -74.2869 -183.251 -74.3015C-183.245 -74.3024 -183.24 -74.3051 -183.238 -74.3089Z" fill="url(#paint20_linear_1163_2195)"/>
<path d="M-327.335 -33.6418C-327.337 -33.6462 -327.336 -33.6506 -327.333 -33.6542C-318.405 -42.4218 -308.187 -50.6389 -296.863 -58.1426C-285.523 -65.6425 -273.085 -72.4197 -259.766 -78.3594C-246.447 -84.2991 -232.256 -89.3923 -217.479 -93.5743C-202.687 -97.7511 -187.318 -101.008 -171.627 -103.292C-155.936 -105.577 -139.937 -106.895 -123.927 -107.234C-107.902 -107.567 -91.8736 -106.913 -76.1218 -105.277C-60.3701 -103.641 -44.8866 -101.032 -29.9833 -97.5044C-15.0516 -93.9665 -0.714322 -89.5156 12.8249 -84.2635C-1.05188 -89.141 -15.6208 -93.1659 -30.6395 -96.2487C-45.6499 -99.3406 -61.0959 -101.485 -76.6772 -102.656C-92.2728 -103.833 -108.004 -104.036 -123.574 -103.278C-139.159 -102.526 -154.605 -100.808 -169.606 -98.171C-184.622 -95.539 -199.215 -91.9833 -213.097 -87.592C-227.001 -83.1968 -240.203 -77.9568 -252.472 -71.9578C-264.741 -65.9588 -276.077 -59.2244 -286.282 -51.8651C-296.488 -44.5058 -305.542 -36.5256 -313.342 -28.0811C-315.657 -25.5752 -320.66 -24.8553 -324.571 -26.3387C-328.482 -27.822 -329.835 -30.9417 -327.511 -33.4567C-327.456 -33.5185 -327.408 -33.5718 -327.339 -33.6283C-327.335 -33.632 -327.333 -33.637 -327.335 -33.6418Z" fill="url(#paint21_linear_1163_2195)"/>
<path d="M-198.138 -118.735C-198.134 -118.74 -198.129 -118.743 -198.122 -118.744C-180.87 -122.098 -163.136 -124.4 -145.257 -125.597C-127.369 -126.783 -109.353 -126.859 -91.5193 -125.827C-73.6858 -124.795 -56.052 -122.651 -38.9316 -119.47C-21.8049 -116.279 -5.20872 -112.047 10.5839 -106.847C26.3765 -101.647 41.3592 -95.4905 55.2681 -88.501C69.1832 -81.5006 82.0074 -73.6635 93.5109 -65.1219C105.014 -56.5804 115.214 -47.3384 123.907 -37.5839C132.612 -27.8075 139.804 -17.5296 145.435 -6.937C139.104 -17.3663 131.245 -27.3895 121.962 -36.8207C112.697 -46.2558 102.014 -55.0879 90.1401 -63.1589C78.2596 -71.2409 65.1873 -78.5617 51.1871 -84.9972C37.1806 -91.4436 22.223 -97.0116 6.62321 -101.6C-8.98281 -106.199 -25.2543 -109.825 -41.8498 -112.422C-58.4686 -115.026 -75.4284 -116.596 -92.4405 -117.101C-109.453 -117.606 -126.489 -117.065 -143.263 -115.482C-160.036 -113.9 -176.524 -111.269 -192.464 -107.675C-197.195 -106.609 -202.221 -108.274 -203.885 -111.305C-205.549 -114.337 -203.239 -117.588 -198.491 -118.658C-198.375 -118.685 -198.276 -118.709 -198.155 -118.725C-198.148 -118.727 -198.141 -118.73 -198.138 -118.735Z" fill="url(#paint22_linear_1163_2195)"/>
</g>
<path d="M-110.671 271.069C77.4801 271.069 230.006 173.341 230.006 52.7881C230.006 -67.7649 77.4801 -165.492 -110.671 -165.492C-298.821 -165.492 -451.347 -67.7649 -451.347 52.7881C-451.347 173.341 -298.821 271.069 -110.671 271.069Z" fill="url(#paint23_radial_1163_2195)" fill-opacity="0.05"/>
</g>
<g style="mix-blend-mode:hard-light">
<path d="M0 10C0 4.47715 4.47715 0 10 0H207C212.523 0 217 4.47715 217 10V89C217 94.5229 212.523 99 207 99H10C4.47716 99 0 94.5229 0 89V10Z" fill="#0072FF"/>
</g>
<rect x="164" width="85" height="99" fill="url(#paint24_linear_1163_2195)"/>
<defs>
<radialGradient id="paint0_radial_1163_2195" cx="0" cy="0" r="1" gradientUnits="userSpaceOnUse" gradientTransform="translate(-110.671 52.7881) scale(340.677 218.281)">
<stop stop-color="#FFBB33"/>
<stop offset="1" stop-color="#FF683B"/>
</radialGradient>
<radialGradient id="paint1_radial_1163_2195" cx="0" cy="0" r="1" gradientUnits="userSpaceOnUse" gradientTransform="translate(-110.67 52.7881) scale(227.118 145.52)">
<stop stop-color="#FFBB33"/>
<stop offset="1" stop-color="#FF683B"/>
</radialGradient>
<radialGradient id="paint2_radial_1163_2195" cx="0" cy="0" r="1" gradientUnits="userSpaceOnUse" gradientTransform="translate(-110.67 52.7881) scale(204.406 130.968)">
<stop stop-color="#FFBB33"/>
<stop offset="1" stop-color="#FF683B"/>
</radialGradient>
<radialGradient id="paint3_radial_1163_2195" cx="0" cy="0" r="1" gradientUnits="userSpaceOnUse" gradientTransform="translate(-110.67 52.7881) scale(193.05 123.692)">
<stop stop-color="#FFBB33"/>
<stop offset="1" stop-color="#FF683B"/>
</radialGradient>
<radialGradient id="paint4_radial_1163_2195" cx="0" cy="0" r="1" gradientUnits="userSpaceOnUse" gradientTransform="translate(-110.67 52.7881) scale(187.486 120.127)">
<stop stop-color="#FFBB33"/>
<stop offset="1" stop-color="#FF683B"/>
</radialGradient>
<radialGradient id="paint5_radial_1163_2195" cx="0" cy="0" r="1" gradientUnits="userSpaceOnUse" gradientTransform="translate(-110.67 52.7881) scale(164.66 105.502)">
<stop stop-color="#FFBB33"/>
<stop offset="1" stop-color="#FF683B"/>
</radialGradient>
<radialGradient id="paint6_radial_1163_2195" cx="0" cy="0" r="1" gradientUnits="userSpaceOnUse" gradientTransform="translate(-110.67 52.7882) scale(141.949 90.9503)">
<stop stop-color="#FFBB33"/>
<stop offset="1" stop-color="#FF683B"/>
</radialGradient>
<radialGradient id="paint7_radial_1163_2195" cx="0" cy="0" r="1" gradientUnits="userSpaceOnUse" gradientTransform="translate(-110.67 52.7881) scale(133.432 85.4932)">
<stop stop-color="#FFBB33"/>
<stop offset="1" stop-color="#FF683B"/>
</radialGradient>
<linearGradient id="paint8_linear_1163_2195" x1="-131.061" y1="88.6835" x2="-31.9306" y2="144.995" gradientUnits="userSpaceOnUse">
<stop stop-color="#F7882B"/>
<stop offset="1" stop-color="#EE5522"/>
</linearGradient>
<linearGradient id="paint9_linear_1163_2195" x1="-75.1121" y1="92.2495" x2="18.5493" y2="7.85242" gradientUnits="userSpaceOnUse">
<stop stop-color="#F7882B"/>
<stop offset="1" stop-color="#EE5522"/>
</linearGradient>
<linearGradient id="paint10_linear_1163_2195" x1="-161.964" y1="99.7245" x2="-59.1422" y2="212.091" gradientUnits="userSpaceOnUse">
<stop stop-color="#F7882B"/>
<stop offset="1" stop-color="#EE5522"/>
</linearGradient>
<linearGradient id="paint11_linear_1163_2195" x1="-142.253" y1="115.067" x2="34.4066" y2="204.653" gradientUnits="userSpaceOnUse">
<stop stop-color="#F7882B"/>
<stop offset="1" stop-color="#EE5522"/>
</linearGradient>
<linearGradient id="paint12_linear_1163_2195" x1="-23.701" y1="99.5458" x2="58.1489" y2="-52.6953" gradientUnits="userSpaceOnUse">
<stop stop-color="#F7882B"/>
<stop offset="1" stop-color="#EE5522"/>
</linearGradient>
<linearGradient id="paint13_linear_1163_2195" x1="-68.4324" y1="127.143" x2="136.909" y2="10.4969" gradientUnits="userSpaceOnUse">
<stop stop-color="#F7882B"/>
<stop offset="1" stop-color="#EE5522"/>
</linearGradient>
<linearGradient id="paint14_linear_1163_2195" x1="-157.278" y1="134.835" x2="69.3061" y2="263.548" gradientUnits="userSpaceOnUse">
<stop stop-color="#F7882B"/>
<stop offset="1" stop-color="#EE5522"/>
</linearGradient>
<linearGradient id="paint15_linear_1163_2195" x1="-208.991" y1="89.1591" x2="-152.505" y2="241.854" gradientUnits="userSpaceOnUse">
<stop stop-color="#F7882B"/>
<stop offset="1" stop-color="#EE5522"/>
</linearGradient>
<linearGradient id="paint16_linear_1163_2195" x1="-66.4151" y1="69.1591" x2="-40.9903" y2="0.429213" gradientUnits="userSpaceOnUse">
<stop stop-color="#F7882B"/>
<stop offset="1" stop-color="#EE5522"/>
</linearGradient>
<linearGradient id="paint17_linear_1163_2195" x1="-54.6475" y1="39.7232" x2="-73.2288" y2="-39.9549" gradientUnits="userSpaceOnUse">
<stop stop-color="#F7882B"/>
<stop offset="1" stop-color="#EE5522"/>
</linearGradient>
<linearGradient id="paint18_linear_1163_2195" x1="-35.1826" y1="61.3165" x2="-23.6852" y2="-40.4508" gradientUnits="userSpaceOnUse">
<stop stop-color="#F7882B"/>
<stop offset="1" stop-color="#EE5522"/>
</linearGradient>
<linearGradient id="paint19_linear_1163_2195" x1="-21.5831" y1="47.7942" x2="-28.2257" y2="-70.703" gradientUnits="userSpaceOnUse">
<stop stop-color="#F7882B"/>
<stop offset="1" stop-color="#EE5522"/>
</linearGradient>
<linearGradient id="paint20_linear_1163_2195" x1="-15.9095" y1="28.2573" x2="-51.3217" y2="-108.538" gradientUnits="userSpaceOnUse">
<stop stop-color="#F7882B"/>
<stop offset="1" stop-color="#EE5522"/>
</linearGradient>
<linearGradient id="paint21_linear_1163_2195" x1="-48.9228" y1="-15.7377" x2="-211.568" y2="-162.296" gradientUnits="userSpaceOnUse">
<stop stop-color="#F7882B"/>
<stop offset="1" stop-color="#EE5522"/>
</linearGradient>
<linearGradient id="paint22_linear_1163_2195" x1="17.3822" y1="22.9255" x2="-25.0894" y2="-159.196" gradientUnits="userSpaceOnUse">
<stop stop-color="#F7882B"/>
<stop offset="1" stop-color="#EE5522"/>
</linearGradient>
<radialGradient id="paint23_radial_1163_2195" cx="0" cy="0" r="1" gradientUnits="userSpaceOnUse" gradientTransform="translate(-110.671 52.7881) scale(340.677 218.281)">
<stop stop-color="#FFBB33"/>
<stop offset="1" stop-color="#FF683B"/>
</radialGradient>
<linearGradient id="paint24_linear_1163_2195" x1="147.5" y1="110.5" x2="255.655" y2="66.2593" gradientUnits="userSpaceOnUse">
<stop stop-color="#0065FF"/>
<stop offset="1" stop-color="#0072FF"/>
</linearGradient>
</defs>
</svg>
