<svg width="27" height="26" viewBox="0 0 27 26" fill="none" xmlns="http://www.w3.org/2000/svg">
<path d="M5.73279 0H22.2207C24.8476 0 26.9769 2.12934 26.9769 4.75623V21.2441C26.9769 23.8707 24.8476 26 22.2207 26H5.73279C3.10591 26 0.976562 23.8707 0.976562 21.2441V4.75623C0.976562 2.12934 3.10591 0 5.73279 0Z" fill="#0072FF"/>
<path d="M3.71924 11.798C3.71924 7.25105 7.40533 3.5653 11.9519 3.5653H24.4535C24.4535 8.11223 20.7677 11.798 16.2208 11.798H3.71924Z" fill="white"/>
<path d="M6.84619 17.2865C6.84619 15.0973 8.62106 13.3227 10.81 13.3227H16.9083C16.9083 15.5116 15.1338 17.2865 12.9446 17.2865H6.84619Z" fill="white"/>
<path d="M6.73669 22.6655C6.73669 20.4763 8.51156 18.7018 10.7005 18.7018H13.4447C13.4447 20.8907 11.6702 22.6655 9.48092 22.6655H6.73669Z" fill="white"/>
</svg>
