<svg width="45" height="23" viewBox="0 0 45 23" fill="none" xmlns="http://www.w3.org/2000/svg">
<path fill-rule="evenodd" clip-rule="evenodd" d="M18.5908 12.557C18.6294 12.557 18.6662 12.5606 18.7012 12.5678H20.1502C20.0525 12.1562 19.9983 11.7013 19.9983 11.1919V7.87683C19.9983 5.32036 21.2875 4.04213 23.855 4.04213H25.5559C28.1123 4.04213 29.3909 5.32036 29.3909 7.88781V12.5678H32.6083L32.6102 12.5678H34.775V5.32036C34.775 4.4754 35.1867 4.05274 36.0207 4.05274C36.8876 4.05274 37.3318 4.48602 37.3424 5.35293L37.3209 12.5678H39.3996C39.4343 12.5605 39.4709 12.5569 39.5092 12.5569H42.3258V5.27681C42.3258 4.44283 42.7481 4.03115 43.6041 4.03115C44.4384 4.03115 44.8607 4.45381 44.8607 5.30938V13.8245C44.8607 14.6804 44.4384 15.1137 43.6041 15.1137H40.6271L40.6249 15.1137H37.3424C36.4975 15.0921 36.0748 14.6694 36.0858 13.8461C36.0316 14.691 35.5984 15.1137 34.775 15.1137H32.7409C32.7057 15.121 32.6687 15.1247 32.6299 15.1247H28.0907C27.2026 15.1247 26.7799 14.8213 26.8231 14.2146L26.8451 7.87683C26.8451 7.03187 26.4224 6.60957 25.5775 6.60957H23.855C22.999 6.60957 22.5658 7.02126 22.5658 7.84463V11.2354C22.5658 12.113 22.999 12.5569 23.855 12.5569L24.906 12.5678C25.7615 12.5678 26.1948 12.9905 26.1948 13.8245C26.1948 14.691 25.7725 15.1247 24.9275 15.1247H17.2574C17.2189 15.1247 17.1821 15.1211 17.1472 15.1138H17.0092C14.4308 15.1138 13.1416 13.8352 13.1416 11.2788V2.08119C13.1416 1.18207 13.5643 0.726837 14.4092 0.726837C15.2432 0.737816 15.6659 1.18207 15.6765 2.04862V11.3113C15.6765 12.1453 16.1317 12.557 17.0308 12.557H18.5908ZM5.41777 3.19098C5.20113 3.19098 4.99547 3.24514 4.80042 3.35346C4.59476 3.46178 4.43192 3.62426 4.3236 3.83028C4.20467 4.02496 4.15051 4.23099 4.15051 4.4586C4.15051 4.67524 4.20467 4.8809 4.3236 5.07595C4.43192 5.28197 4.58379 5.44445 4.77883 5.55277C4.98449 5.6717 5.20113 5.72586 5.41777 5.72586C5.63477 5.72586 5.84043 5.6717 6.04609 5.55277C6.24114 5.44445 6.40361 5.28197 6.52291 5.07595C6.63123 4.8809 6.68539 4.67524 6.68539 4.4586C6.68539 4.23099 6.62025 4.02496 6.50132 3.83028C6.393 3.62426 6.24114 3.46178 6.03548 3.35346C5.84043 3.24514 5.63477 3.19098 5.41777 3.19098ZM8.125 17.3994C10.7466 17.3994 12.0574 16.1212 12.0574 13.5643V4.15048C12.0574 3.29454 11.6351 2.87188 10.7902 2.87188C9.93422 2.87188 9.51156 3.28357 9.51156 4.11791L9.48997 13.5321C9.48997 14.4097 9.05669 14.8429 8.19014 14.8429H3.88923C2.99011 14.8429 2.53488 14.4312 2.53488 13.5969V9.31794C2.52427 8.45103 2.1016 8.01775 1.26762 8.00714C0.422663 8.00714 0 8.98164 0 9.88113V14.0953C0 16.6518 1.28921 17.3994 3.86764 17.3994H8.125ZM40.2046 20.0725C39.5005 20.0725 38.8722 20.6793 38.8722 21.4049C38.8396 22.0874 39.5221 22.7809 40.2046 22.7373C40.8981 22.7809 41.5696 22.0874 41.5374 21.4049C41.5374 20.6793 40.9197 20.0725 40.2046 20.0725ZM33.701 19.5868H30.9817C30.1042 19.5652 29.6709 19.121 29.6709 18.2544C29.6925 17.3553 30.1261 16.9111 30.9817 16.9217H33.701C34.6001 16.9111 35.0444 17.3553 35.0334 18.2544C35.0444 19.1426 34.6001 19.5868 33.701 19.5868ZM38.8352 19.5868H41.5545C42.4536 19.5868 42.8979 19.1426 42.8869 18.2544C42.8979 17.3553 42.4536 16.9111 41.5545 16.9217H38.8352C37.9796 16.9111 37.5464 17.3553 37.5244 18.2544C37.5244 19.121 37.9577 19.5652 38.8352 19.5868Z" fill="#101828"/>
</svg>
