<svg width="94" height="39" viewBox="0 0 94 39" fill="none" xmlns="http://www.w3.org/2000/svg">
<path d="M62.0621 7.62939e-06H86.6246C90.538 7.62939e-06 93.7101 3.17216 93.7101 7.08552V31.6481C93.7101 35.5609 90.538 38.7331 86.6246 38.7331H62.0621C58.1487 38.7331 54.9766 35.5609 54.9766 31.6481V7.08552C54.9766 3.17216 58.1487 7.62939e-06 62.0621 7.62939e-06Z" fill="#0072FF"/>
<path d="M59.0625 17.5758C59.0625 10.8021 64.5538 5.3113 71.327 5.3113H89.951C89.951 12.085 84.4602 17.5758 77.6865 17.5758H59.0625Z" fill="white"/>
<path d="M63.7207 25.7522C63.7207 22.4908 66.3648 19.8473 69.6256 19.8473H78.7106C78.7106 23.1081 76.0671 25.7522 72.8057 25.7522H63.7207Z" fill="white"/>
<path d="M63.5576 33.7655C63.5576 30.5041 66.2017 27.8605 69.4626 27.8605H73.5507C73.5507 31.1214 70.9072 33.7655 67.6458 33.7655H63.5576Z" fill="white"/>
<path fill-rule="evenodd" clip-rule="evenodd" d="M18.5908 22.557C18.6294 22.557 18.6662 22.5606 18.7012 22.5678H20.1502C20.0525 22.1562 19.9983 21.7013 19.9983 21.1919V17.8768C19.9983 15.3204 21.2875 14.0421 23.855 14.0421H25.5559C28.1123 14.0421 29.3909 15.3204 29.3909 17.8878V22.5678H32.6083L32.6102 22.5678H34.775V15.3204C34.775 14.4754 35.1867 14.0527 36.0207 14.0527C36.8876 14.0527 37.3318 14.486 37.3424 15.3529L37.3209 22.5678H39.3996C39.4343 22.5605 39.4709 22.5569 39.5092 22.5569H42.3258V15.2768C42.3258 14.4428 42.7481 14.0311 43.6041 14.0311C44.4384 14.0311 44.8607 14.4538 44.8607 15.3094V23.8245C44.8607 24.6804 44.4384 25.1137 43.6041 25.1137H40.6271L40.6249 25.1137H37.3424C36.4975 25.0921 36.0748 24.6694 36.0858 23.8461C36.0316 24.691 35.5984 25.1137 34.775 25.1137H32.7409C32.7057 25.121 32.6687 25.1247 32.6299 25.1247H28.0907C27.2026 25.1247 26.7799 24.8213 26.8231 24.2146L26.8451 17.8768C26.8451 17.0319 26.4224 16.6096 25.5775 16.6096H23.855C22.999 16.6096 22.5658 17.0213 22.5658 17.8446V21.2354C22.5658 22.113 22.999 22.5569 23.855 22.5569L24.906 22.5678C25.7615 22.5678 26.1948 22.9905 26.1948 23.8245C26.1948 24.691 25.7725 25.1247 24.9275 25.1247H17.2574C17.2189 25.1247 17.1821 25.1211 17.1472 25.1138H17.0092C14.4308 25.1138 13.1416 23.8352 13.1416 21.2788V12.0812C13.1416 11.1821 13.5643 10.7268 14.4092 10.7268C15.2432 10.7378 15.6659 11.1821 15.6765 12.0486V21.3113C15.6765 22.1453 16.1317 22.557 17.0308 22.557H18.5908ZM5.41777 13.191C5.20113 13.191 4.99547 13.2451 4.80042 13.3535C4.59476 13.4618 4.43192 13.6243 4.3236 13.8303C4.20467 14.025 4.15051 14.231 4.15051 14.4586C4.15051 14.6752 4.20467 14.8809 4.3236 15.0759C4.43192 15.282 4.58379 15.4445 4.77883 15.5528C4.98449 15.6717 5.20113 15.7259 5.41777 15.7259C5.63477 15.7259 5.84043 15.6717 6.04609 15.5528C6.24114 15.4445 6.40361 15.282 6.52291 15.0759C6.63123 14.8809 6.68539 14.6752 6.68539 14.4586C6.68539 14.231 6.62025 14.025 6.50132 13.8303C6.393 13.6243 6.24114 13.4618 6.03548 13.3535C5.84043 13.2451 5.63477 13.191 5.41777 13.191ZM8.125 27.3994C10.7466 27.3994 12.0574 26.1212 12.0574 23.5643V14.1505C12.0574 13.2945 11.6351 12.8719 10.7902 12.8719C9.93422 12.8719 9.51156 13.2836 9.51156 14.1179L9.48997 23.5321C9.48997 24.4097 9.05669 24.8429 8.19014 24.8429H3.88923C2.99011 24.8429 2.53488 24.4312 2.53488 23.5969V19.3179C2.52427 18.451 2.1016 18.0178 1.26762 18.0071C0.422663 18.0071 0 18.9816 0 19.8811V24.0953C0 26.6518 1.28921 27.3994 3.86764 27.3994H8.125ZM40.2046 30.0725C39.5005 30.0725 38.8722 30.6793 38.8722 31.4049C38.8396 32.0874 39.5221 32.7809 40.2046 32.7373C40.8981 32.7809 41.5696 32.0874 41.5374 31.4049C41.5374 30.6793 40.9197 30.0725 40.2046 30.0725ZM33.701 29.5868H30.9817C30.1042 29.5652 29.6709 29.121 29.6709 28.2544C29.6925 27.3553 30.1261 26.9111 30.9817 26.9217H33.701C34.6001 26.9111 35.0444 27.3553 35.0334 28.2544C35.0444 29.1426 34.6001 29.5868 33.701 29.5868ZM38.8352 29.5868H41.5545C42.4536 29.5868 42.8979 29.1426 42.8869 28.2544C42.8979 27.3553 42.4536 26.9111 41.5545 26.9217H38.8352C37.9796 26.9111 37.5464 27.3553 37.5244 28.2544C37.5244 29.121 37.9577 29.5652 38.8352 29.5868Z" fill="#101828"/>
</svg>
